<mxfile host="Electron" modified="2024-06-28T13:54:00.362Z" agent="Mozilla/5.0 (Windows NT 10.0; Win64; x64) AppleWebKit/537.36 (KHTML, like Gecko) draw.io/23.1.5 Chrome/120.0.6099.109 Electron/28.1.0 Safari/537.36" etag="oAO8QkfA2Ij-snIKae2W" version="23.1.5" type="device">
  <diagram name="Page-1" id="3TUpHSHA1gtK3B0JEU8y">
    <mxGraphModel dx="778" dy="473" grid="1" gridSize="10" guides="1" tooltips="1" connect="1" arrows="1" fold="1" page="1" pageScale="1" pageWidth="583" pageHeight="413" math="0" shadow="0">
      <root>
        <mxCell id="0" />
        <mxCell id="1" parent="0" />
        <mxCell id="QgdDYN5rGUicbWpnFUVR-7" value="" style="endArrow=none;html=1;rounded=0;strokeWidth=0.2;strokeColor=#007FFF;endFill=0;endSize=4;startArrow=none;startFill=0;startSize=4;dashed=1;" edge="1" parent="1">
          <mxGeometry width="50" height="50" relative="1" as="geometry">
            <mxPoint x="171" y="200" as="sourcePoint" />
            <mxPoint x="171" y="55" as="targetPoint" />
          </mxGeometry>
        </mxCell>
        <mxCell id="nw0UZW-xQefEUAk0dn4Y-22" value="" style="endArrow=classicThin;html=1;rounded=0;strokeWidth=0.2;strokeColor=#007FFF;endFill=1;endSize=4;startArrow=classicThin;startFill=1;startSize=4;" parent="1" edge="1">
          <mxGeometry width="50" height="50" relative="1" as="geometry">
            <mxPoint x="71" y="198" as="sourcePoint" />
            <mxPoint x="71" y="78" as="targetPoint" />
          </mxGeometry>
        </mxCell>
        <mxCell id="nw0UZW-xQefEUAk0dn4Y-40" value="" style="ellipse;whiteSpace=wrap;html=1;aspect=fixed;fillColor=none;connectable=0;allowArrows=0;" parent="1" vertex="1">
          <mxGeometry x="220" y="80" width="120" height="120" as="geometry" />
        </mxCell>
        <mxCell id="nw0UZW-xQefEUAk0dn4Y-41" value="" style="ellipse;whiteSpace=wrap;html=1;aspect=fixed;fillColor=none;connectable=0;allowArrows=0;" parent="1" vertex="1">
          <mxGeometry x="235" y="95" width="90" height="90" as="geometry" />
        </mxCell>
        <mxCell id="QgdDYN5rGUicbWpnFUVR-1" value="" style="endArrow=none;html=1;rounded=0;" edge="1" parent="1">
          <mxGeometry width="50" height="50" relative="1" as="geometry">
            <mxPoint x="141" y="80" as="sourcePoint" />
            <mxPoint x="141" y="80" as="targetPoint" />
            <Array as="points">
              <mxPoint x="201" y="80" />
              <mxPoint x="171" y="200" />
              <mxPoint x="111" y="200" />
              <mxPoint x="81" y="80" />
            </Array>
          </mxGeometry>
        </mxCell>
        <mxCell id="QgdDYN5rGUicbWpnFUVR-4" value="&lt;div style=&quot;&quot;&gt;&lt;span style=&quot;background-color: initial;&quot;&gt;mug&lt;/span&gt;&lt;/div&gt;&lt;div style=&quot;&quot;&gt;&lt;span style=&quot;background-color: initial;&quot;&gt;height&lt;/span&gt;&lt;/div&gt;" style="text;html=1;align=right;verticalAlign=middle;whiteSpace=wrap;rounded=0;fontSize=10;fontColor=#007FFF;allowArrows=0;connectable=0;spacingLeft=2;spacingTop=2;spacingBottom=2;spacingRight=2;" vertex="1" parent="1">
          <mxGeometry x="21" y="120" width="50" height="40" as="geometry" />
        </mxCell>
        <mxCell id="QgdDYN5rGUicbWpnFUVR-5" value="" style="endArrow=classicThin;html=1;rounded=0;strokeWidth=0.2;strokeColor=#007FFF;endFill=1;endSize=4;startArrow=classicThin;startFill=1;startSize=4;" edge="1" parent="1">
          <mxGeometry width="50" height="50" relative="1" as="geometry">
            <mxPoint x="96" y="140" as="sourcePoint" />
            <mxPoint x="186" y="140" as="targetPoint" />
          </mxGeometry>
        </mxCell>
        <mxCell id="QgdDYN5rGUicbWpnFUVR-6" value="&lt;div style=&quot;&quot;&gt;&lt;span style=&quot;background-color: initial;&quot;&gt;mug size&lt;/span&gt;&lt;/div&gt;" style="text;html=1;align=center;verticalAlign=bottom;whiteSpace=wrap;rounded=0;fontSize=10;fontColor=#007FFF;allowArrows=0;connectable=0;spacingLeft=2;spacingTop=2;spacingBottom=2;spacingRight=2;" vertex="1" parent="1">
          <mxGeometry x="111" y="120" width="60" height="20" as="geometry" />
        </mxCell>
        <mxCell id="QgdDYN5rGUicbWpnFUVR-8" value="" style="endArrow=classicThin;html=1;rounded=0;strokeWidth=0.2;strokeColor=#007FFF;endFill=1;endSize=4;startArrow=classicThin;startFill=1;startSize=4;curved=1;" edge="1" parent="1">
          <mxGeometry width="50" height="50" relative="1" as="geometry">
            <mxPoint x="204" y="70" as="sourcePoint" />
            <mxPoint x="171" y="63" as="targetPoint" />
            <Array as="points">
              <mxPoint x="192" y="63" />
            </Array>
          </mxGeometry>
        </mxCell>
        <mxCell id="QgdDYN5rGUicbWpnFUVR-9" value="" style="endArrow=none;html=1;rounded=0;strokeWidth=0.2;strokeColor=#007FFF;endFill=0;endSize=4;startArrow=none;startFill=0;startSize=4;dashed=1;" edge="1" parent="1">
          <mxGeometry width="50" height="50" relative="1" as="geometry">
            <mxPoint x="201" y="80" as="sourcePoint" />
            <mxPoint x="205" y="63" as="targetPoint" />
          </mxGeometry>
        </mxCell>
        <mxCell id="QgdDYN5rGUicbWpnFUVR-11" value="&lt;div style=&quot;&quot;&gt;&lt;span style=&quot;background-color: initial;&quot;&gt;mug shape&lt;/span&gt;&lt;/div&gt;" style="text;html=1;align=center;verticalAlign=bottom;whiteSpace=wrap;rounded=0;fontSize=10;fontColor=#007FFF;allowArrows=0;connectable=0;spacingLeft=2;spacingTop=2;spacingBottom=2;spacingRight=2;" vertex="1" parent="1">
          <mxGeometry x="171" y="40" width="40" height="25" as="geometry" />
        </mxCell>
        <mxCell id="nw0UZW-xQefEUAk0dn4Y-36" value="" style="ellipse;whiteSpace=wrap;html=1;aspect=fixed;connectable=0;fillColor=#007FFF;strokeColor=none;" parent="1" vertex="1">
          <mxGeometry x="139" y="198" width="4" height="4" as="geometry" />
        </mxCell>
        <mxCell id="QgdDYN5rGUicbWpnFUVR-13" value="&lt;div style=&quot;&quot;&gt;&lt;span style=&quot;background-color: initial;&quot;&gt;origin&lt;/span&gt;&lt;/div&gt;" style="text;html=1;align=center;verticalAlign=middle;whiteSpace=wrap;rounded=0;fontSize=10;fontColor=#007FFF;allowArrows=0;connectable=0;spacingLeft=2;spacingTop=2;spacingBottom=2;spacingRight=2;" vertex="1" parent="1">
          <mxGeometry x="111" y="182" width="60" height="18" as="geometry" />
        </mxCell>
        <mxCell id="QgdDYN5rGUicbWpnFUVR-16" value="" style="ellipse;whiteSpace=wrap;html=1;aspect=fixed;connectable=0;fillColor=#007FFF;strokeColor=none;" vertex="1" parent="1">
          <mxGeometry x="278" y="138" width="4" height="4" as="geometry" />
        </mxCell>
        <mxCell id="QgdDYN5rGUicbWpnFUVR-20" value="" style="endArrow=classicThin;html=1;rounded=0;strokeWidth=0.2;strokeColor=#007FFF;endFill=1;endSize=4;startArrow=classicThin;startFill=1;startSize=4;" edge="1" parent="1">
          <mxGeometry width="50" height="50" relative="1" as="geometry">
            <mxPoint x="279.79" y="94.5" as="sourcePoint" />
            <mxPoint x="279.79" y="79.5" as="targetPoint" />
          </mxGeometry>
        </mxCell>
        <mxCell id="QgdDYN5rGUicbWpnFUVR-21" value="&lt;div style=&quot;&quot;&gt;mug width&lt;/div&gt;" style="text;html=1;align=left;verticalAlign=middle;whiteSpace=wrap;rounded=0;fontSize=10;fontColor=#007FFF;allowArrows=0;connectable=0;spacingLeft=2;spacingTop=2;spacingBottom=2;spacingRight=2;" vertex="1" parent="1">
          <mxGeometry x="252" y="57" width="66" height="23" as="geometry" />
        </mxCell>
        <mxCell id="QgdDYN5rGUicbWpnFUVR-26" value="" style="endArrow=none;html=1;rounded=0;curved=1;" edge="1" parent="1">
          <mxGeometry width="50" height="50" relative="1" as="geometry">
            <mxPoint x="340" y="130" as="sourcePoint" />
            <mxPoint x="340" y="150" as="targetPoint" />
            <Array as="points">
              <mxPoint x="360" y="130" />
              <mxPoint x="380" y="130" />
              <mxPoint x="380" y="150" />
              <mxPoint x="360" y="150" />
            </Array>
          </mxGeometry>
        </mxCell>
        <mxCell id="QgdDYN5rGUicbWpnFUVR-27" value="" style="endArrow=classicThin;html=1;rounded=0;strokeWidth=0.2;strokeColor=#007FFF;endFill=1;endSize=4;startArrow=classicThin;startFill=1;startSize=4;" edge="1" parent="1">
          <mxGeometry width="50" height="50" relative="1" as="geometry">
            <mxPoint x="360" y="149.5" as="sourcePoint" />
            <mxPoint x="360" y="130.5" as="targetPoint" />
          </mxGeometry>
        </mxCell>
        <mxCell id="QgdDYN5rGUicbWpnFUVR-28" value="&lt;div style=&quot;&quot;&gt;handle width&lt;/div&gt;" style="text;html=1;align=left;verticalAlign=middle;whiteSpace=wrap;rounded=0;fontSize=10;fontColor=#007FFF;allowArrows=0;connectable=0;spacingLeft=2;spacingTop=2;spacingBottom=2;spacingRight=2;" vertex="1" parent="1">
          <mxGeometry x="338" y="155" width="48" height="30" as="geometry" />
        </mxCell>
        <mxCell id="QgdDYN5rGUicbWpnFUVR-30" value="" style="endArrow=classicThin;html=1;rounded=0;strokeWidth=0.2;strokeColor=#007FFF;endFill=1;endSize=4;startArrow=classicThin;startFill=1;startSize=4;" edge="1" parent="1">
          <mxGeometry width="50" height="50" relative="1" as="geometry">
            <mxPoint x="440" y="190" as="sourcePoint" />
            <mxPoint x="440" y="90" as="targetPoint" />
          </mxGeometry>
        </mxCell>
        <mxCell id="QgdDYN5rGUicbWpnFUVR-31" value="" style="endArrow=none;html=1;rounded=0;" edge="1" parent="1">
          <mxGeometry width="50" height="50" relative="1" as="geometry">
            <mxPoint x="460" y="80" as="sourcePoint" />
            <mxPoint x="460" y="80" as="targetPoint" />
            <Array as="points">
              <mxPoint x="520" y="80" />
              <mxPoint x="490" y="200" />
              <mxPoint x="430" y="200" />
              <mxPoint x="400" y="80" />
            </Array>
          </mxGeometry>
        </mxCell>
        <mxCell id="QgdDYN5rGUicbWpnFUVR-32" value="&lt;div style=&quot;&quot;&gt;&lt;span style=&quot;&quot;&gt;handle&lt;/span&gt;&lt;/div&gt;&lt;div style=&quot;&quot;&gt;&lt;span style=&quot;&quot;&gt;position&lt;/span&gt;&lt;/div&gt;" style="text;html=1;align=right;verticalAlign=middle;whiteSpace=wrap;rounded=0;fontSize=10;fontColor=#007FFF;allowArrows=0;connectable=0;spacingLeft=2;spacingTop=2;spacingBottom=2;spacingRight=2;labelBackgroundColor=default;" vertex="1" parent="1">
          <mxGeometry x="386" y="114" width="50" height="40" as="geometry" />
        </mxCell>
        <mxCell id="QgdDYN5rGUicbWpnFUVR-35" value="" style="endArrow=classicThin;html=1;rounded=0;strokeWidth=0.2;strokeColor=#007FFF;endFill=1;endSize=4;startArrow=classicThin;startFill=1;startSize=4;curved=1;" edge="1" parent="1">
          <mxGeometry width="50" height="50" relative="1" as="geometry">
            <mxPoint x="578" y="98" as="sourcePoint" />
            <mxPoint x="522" y="73" as="targetPoint" />
            <Array as="points">
              <mxPoint x="557" y="73" />
            </Array>
          </mxGeometry>
        </mxCell>
        <mxCell id="QgdDYN5rGUicbWpnFUVR-36" value="" style="endArrow=none;html=1;rounded=0;strokeWidth=0.2;strokeColor=#007FFF;endFill=0;endSize=4;startArrow=none;startFill=0;startSize=4;dashed=1;" edge="1" parent="1">
          <mxGeometry width="50" height="50" relative="1" as="geometry">
            <mxPoint x="520" y="80" as="sourcePoint" />
            <mxPoint x="524" y="63" as="targetPoint" />
          </mxGeometry>
        </mxCell>
        <mxCell id="QgdDYN5rGUicbWpnFUVR-37" value="&lt;div style=&quot;&quot;&gt;&lt;span style=&quot;background-color: initial;&quot;&gt;handle shape&lt;/span&gt;&lt;/div&gt;" style="text;html=1;align=center;verticalAlign=middle;whiteSpace=wrap;rounded=0;fontSize=10;fontColor=#007FFF;allowArrows=0;connectable=0;spacingLeft=2;spacingTop=2;spacingBottom=2;spacingRight=2;" vertex="1" parent="1">
          <mxGeometry x="542" y="53" width="40" height="25" as="geometry" />
        </mxCell>
        <mxCell id="QgdDYN5rGUicbWpnFUVR-38" value="" style="ellipse;whiteSpace=wrap;html=1;aspect=fixed;connectable=0;fillColor=#007FFF;strokeColor=none;" vertex="1" parent="1">
          <mxGeometry x="458" y="198" width="4" height="4" as="geometry" />
        </mxCell>
        <mxCell id="QgdDYN5rGUicbWpnFUVR-40" value="" style="endArrow=none;html=1;rounded=0;curved=1;" edge="1" parent="1">
          <mxGeometry width="50" height="50" relative="1" as="geometry">
            <mxPoint x="517" y="91" as="sourcePoint" />
            <mxPoint x="493" y="189" as="targetPoint" />
            <Array as="points">
              <mxPoint x="589" y="114" />
            </Array>
          </mxGeometry>
        </mxCell>
        <mxCell id="QgdDYN5rGUicbWpnFUVR-41" value="" style="endArrow=none;html=1;rounded=0;curved=1;" edge="1" parent="1">
          <mxGeometry width="50" height="50" relative="1" as="geometry">
            <mxPoint x="513" y="108" as="sourcePoint" />
            <mxPoint x="500" y="160" as="targetPoint" />
            <Array as="points">
              <mxPoint x="553" y="116" />
            </Array>
          </mxGeometry>
        </mxCell>
        <mxCell id="QgdDYN5rGUicbWpnFUVR-42" value="" style="endArrow=classicThin;html=1;rounded=0;strokeWidth=0.2;strokeColor=#007FFF;endFill=1;endSize=4;startArrow=classicThin;startFill=1;startSize=4;" edge="1" parent="1">
          <mxGeometry width="50" height="50" relative="1" as="geometry">
            <mxPoint x="600" y="189" as="sourcePoint" />
            <mxPoint x="600" y="89" as="targetPoint" />
          </mxGeometry>
        </mxCell>
        <mxCell id="QgdDYN5rGUicbWpnFUVR-43" value="&lt;div style=&quot;&quot;&gt;&lt;span style=&quot;background-color: initial;&quot;&gt;handle&lt;/span&gt;&lt;/div&gt;&lt;div style=&quot;&quot;&gt;&lt;span style=&quot;background-color: initial;&quot;&gt;height&lt;/span&gt;&lt;/div&gt;" style="text;html=1;align=left;verticalAlign=middle;whiteSpace=wrap;rounded=0;fontSize=10;fontColor=#007FFF;allowArrows=0;connectable=0;spacingLeft=2;spacingTop=2;spacingBottom=2;spacingRight=2;" vertex="1" parent="1">
          <mxGeometry x="600" y="141" width="50" height="40" as="geometry" />
        </mxCell>
        <mxCell id="QgdDYN5rGUicbWpnFUVR-44" value="" style="endArrow=classicThin;html=1;rounded=0;strokeWidth=0.2;strokeColor=#007FFF;endFill=1;endSize=4;startArrow=classicThin;startFill=1;startSize=4;" edge="1" parent="1">
          <mxGeometry width="50" height="50" relative="1" as="geometry">
            <mxPoint x="490" y="200" as="sourcePoint" />
            <mxPoint x="550" y="200" as="targetPoint" />
          </mxGeometry>
        </mxCell>
        <mxCell id="QgdDYN5rGUicbWpnFUVR-45" value="&lt;div style=&quot;&quot;&gt;&lt;span style=&quot;background-color: initial;&quot;&gt;handle size&lt;/span&gt;&lt;/div&gt;" style="text;html=1;align=right;verticalAlign=bottom;whiteSpace=wrap;rounded=0;fontSize=10;fontColor=#007FFF;allowArrows=0;connectable=0;spacingLeft=2;spacingTop=2;spacingBottom=2;spacingRight=2;" vertex="1" parent="1">
          <mxGeometry x="500" y="181" width="50" height="20" as="geometry" />
        </mxCell>
        <mxCell id="QgdDYN5rGUicbWpnFUVR-46" value="" style="endArrow=classicThin;html=1;rounded=0;strokeWidth=0.2;strokeColor=#007FFF;endFill=1;endSize=4;startArrow=classicThin;startFill=1;startSize=4;" edge="1" parent="1">
          <mxGeometry width="50" height="50" relative="1" as="geometry">
            <mxPoint x="508" y="107" as="sourcePoint" />
            <mxPoint x="512" y="90" as="targetPoint" />
          </mxGeometry>
        </mxCell>
        <mxCell id="QgdDYN5rGUicbWpnFUVR-49" value="&lt;div style=&quot;&quot;&gt;&lt;span style=&quot;background-color: initial;&quot;&gt;handle&lt;/span&gt;&lt;/div&gt;&lt;div style=&quot;&quot;&gt;&lt;span style=&quot;background-color: initial;&quot;&gt;thickness&lt;/span&gt;&lt;/div&gt;" style="text;html=1;align=right;verticalAlign=middle;whiteSpace=wrap;rounded=0;fontSize=10;fontColor=#007FFF;allowArrows=0;connectable=0;spacingLeft=2;spacingTop=2;spacingBottom=2;spacingRight=2;" vertex="1" parent="1">
          <mxGeometry x="459" y="78" width="50" height="40" as="geometry" />
        </mxCell>
        <mxCell id="QgdDYN5rGUicbWpnFUVR-50" value="" style="endArrow=none;html=1;rounded=0;strokeWidth=0.2;strokeColor=#007FFF;endFill=0;endSize=4;startArrow=none;startFill=0;startSize=4;dashed=1;" edge="1" parent="1">
          <mxGeometry width="50" height="50" relative="1" as="geometry">
            <mxPoint x="535" y="149" as="sourcePoint" />
            <mxPoint x="584" y="90" as="targetPoint" />
          </mxGeometry>
        </mxCell>
        <mxCell id="QgdDYN5rGUicbWpnFUVR-59" value="" style="group" vertex="1" connectable="0" parent="1">
          <mxGeometry x="437" y="110" width="7" height="50" as="geometry" />
        </mxCell>
        <mxCell id="QgdDYN5rGUicbWpnFUVR-53" value="" style="endArrow=none;html=1;rounded=0;strokeWidth=0.2;strokeColor=#007FFF;endFill=0;endSize=4;startArrow=none;startFill=0;startSize=4;" edge="1" parent="QgdDYN5rGUicbWpnFUVR-59">
          <mxGeometry width="50" height="50" relative="1" as="geometry">
            <mxPoint x="5" as="sourcePoint" />
            <mxPoint as="targetPoint" />
          </mxGeometry>
        </mxCell>
        <mxCell id="QgdDYN5rGUicbWpnFUVR-54" value="" style="endArrow=none;html=1;rounded=0;strokeWidth=0.2;strokeColor=#007FFF;endFill=0;endSize=4;startArrow=none;startFill=0;startSize=4;" edge="1" parent="QgdDYN5rGUicbWpnFUVR-59">
          <mxGeometry width="50" height="50" relative="1" as="geometry">
            <mxPoint x="5" y="10" as="sourcePoint" />
            <mxPoint y="10" as="targetPoint" />
          </mxGeometry>
        </mxCell>
        <mxCell id="QgdDYN5rGUicbWpnFUVR-55" value="" style="endArrow=none;html=1;rounded=0;strokeWidth=0.2;strokeColor=#007FFF;endFill=0;endSize=4;startArrow=none;startFill=0;startSize=4;" edge="1" parent="QgdDYN5rGUicbWpnFUVR-59">
          <mxGeometry width="50" height="50" relative="1" as="geometry">
            <mxPoint x="5" y="20" as="sourcePoint" />
            <mxPoint y="20" as="targetPoint" />
          </mxGeometry>
        </mxCell>
        <mxCell id="QgdDYN5rGUicbWpnFUVR-56" value="" style="endArrow=none;html=1;rounded=0;strokeWidth=0.2;strokeColor=#007FFF;endFill=0;endSize=4;startArrow=none;startFill=0;startSize=4;" edge="1" parent="QgdDYN5rGUicbWpnFUVR-59">
          <mxGeometry width="50" height="50" relative="1" as="geometry">
            <mxPoint x="5" y="30" as="sourcePoint" />
            <mxPoint y="30" as="targetPoint" />
          </mxGeometry>
        </mxCell>
        <mxCell id="QgdDYN5rGUicbWpnFUVR-57" value="" style="endArrow=none;html=1;rounded=0;strokeWidth=0.2;strokeColor=#007FFF;endFill=0;endSize=4;startArrow=none;startFill=0;startSize=4;" edge="1" parent="QgdDYN5rGUicbWpnFUVR-59">
          <mxGeometry width="50" height="50" relative="1" as="geometry">
            <mxPoint x="5" y="40" as="sourcePoint" />
            <mxPoint y="40" as="targetPoint" />
          </mxGeometry>
        </mxCell>
        <mxCell id="QgdDYN5rGUicbWpnFUVR-58" value="" style="endArrow=none;html=1;rounded=0;strokeWidth=0.2;strokeColor=#007FFF;endFill=0;endSize=4;startArrow=none;startFill=0;startSize=4;" edge="1" parent="QgdDYN5rGUicbWpnFUVR-59">
          <mxGeometry width="50" height="50" relative="1" as="geometry">
            <mxPoint x="5" y="50" as="sourcePoint" />
            <mxPoint y="50" as="targetPoint" />
          </mxGeometry>
        </mxCell>
      </root>
    </mxGraphModel>
  </diagram>
</mxfile>
